<?xml version="1.0" encoding="utf-8"?>
<!-- Generator: Adobe Illustrator 23.1.1, SVG Export Plug-In . SVG Version: 6.00 Build 0)  -->
<svg version="1.1" id="Layer_1" xmlns="http://www.w3.org/2000/svg" xmlns:xlink="http://www.w3.org/1999/xlink" x="0px" y="0px"
	 viewBox="0 0 1080 1080" style="enable-background:new 0 0 1080 1080;" xml:space="preserve">
<style type="text/css">
	.st0{fill:none;stroke:#0000FF;stroke-width:4;stroke-miterlimit:10;}
	.st1{fill:#0000FF;}
	.st2{fill:none;stroke:#0000FF;stroke-width:7;stroke-miterlimit:10;}
	.st3{font-family:'Chalga-Regular';}
	.st4{font-size:139.02px;}
	.st5{letter-spacing:-13;}
	.st6{letter-spacing:-11;}
</style>
<circle class="st0" cx="2966.6" cy="567.4" r="330"/>
<circle class="st1" cx="2966.6" cy="567.4" r="15.8"/>
<circle class="st2" cx="2966.6" cy="567.4" r="330"/>
<circle class="st1" cx="2966.6" cy="567.4" r="15.8"/>
<circle class="st0" cx="1764.6" cy="541.5" r="330"/>
<circle class="st1" cx="1764.6" cy="541.5" r="15.8"/>
<text transform="matrix(1 0 0 1 1631.865 158.7207)" class="st1 st3" style="font-size:212.5853px; letter-spacing:-21;">on</text>
<text transform="matrix(6.123234e-17 1 -1 6.123234e-17 2147.1765 360.418)" class="st1 st3" style="font-size:212.5853px; letter-spacing:-21;">our</text>
<text transform="matrix(-1 0 0 -1 1964.24 921.2793)" class="st1 st3" style="font-size:212.5853px; letter-spacing:-17;">own</text>
<text transform="matrix(6.123234e-17 -1 1 6.123234e-17 1386.6453 804.0732)" class="st1 st3" style="font-size:212.5853px; letter-spacing:-21;">time</text>
<circle class="st2" cx="1764.6" cy="541.5" r="330"/>
<circle class="st1" cx="1764.6" cy="541.5" r="15.8"/>
<circle class="st0" cx="540" cy="540" r="215.8"/>
<circle class="st1" cx="540" cy="540" r="10.3"/>
<text transform="matrix(1 0 0 1 453.1905 289.6602)" class="st1 st3 st4 st5">on</text>
<text transform="matrix(6.123234e-17 1 -1 6.123234e-17 790.1777 421.56)" class="st1 st3 st4 st5">our</text>
<text transform="matrix(-1 0 0 -1 670.5469 788.334)" class="st1 st3 st4 st6">own</text>
<text transform="matrix(6.123234e-17 -1 1 6.123234e-17 292.8298 711.6865)" class="st1 st3 st4 st5">time</text>
<circle class="st2" cx="540" cy="540" r="215.8"/>
<circle class="st1" cx="540" cy="540" r="10.3"/>
</svg>
