<?xml version="1.0" encoding="utf-8"?>
<!-- Generator: Adobe Illustrator 23.1.1, SVG Export Plug-In . SVG Version: 6.00 Build 0)  -->
<svg version="1.1" id="Layer_1" xmlns="http://www.w3.org/2000/svg" xmlns:xlink="http://www.w3.org/1999/xlink" x="0px" y="0px"
	 viewBox="0 0 1064.6 1023" style="enable-background:new 0 0 1064.6 1023;" xml:space="preserve">
<style type="text/css">
	.st0{fill:none;stroke:#0000FF;stroke-width:4;stroke-miterlimit:10;}
	.st1{fill:#0000FF;}
	.st2{font-family:'Chalga-Regular';}
	.st3{font-size:212.5853px;}
	.st4{letter-spacing:-21;}
	.st5{letter-spacing:-17;}
	.st6{fill:none;stroke:#0000FF;stroke-width:7;stroke-miterlimit:10;}
</style>
<circle class="st0" cx="551.7" cy="513" r="330"/>
<circle class="st1" cx="551.7" cy="513" r="15.8"/>
<text transform="matrix(1 0 0 1 418.915 130.1642)" class="st1 st2 st3 st4">on</text>
<text transform="matrix(6.123234e-17 1 -1 6.123234e-17 934.2265 331.8614)" class="st1 st2 st3 st4">our</text>
<text transform="matrix(-1 0 0 -1 751.29 892.7228)" class="st1 st2 st3 st5">own</text>
<text transform="matrix(6.123234e-17 -1 1 6.123234e-17 173.6953 775.5167)" class="st1 st2 st3 st4">time</text>
<circle class="st6" cx="551.7" cy="513" r="330"/>
<circle class="st1" cx="551.7" cy="513" r="15.8"/>
<circle class="st0" cx="-673" cy="511.4" r="215.8"/>
<circle class="st1" cx="-673" cy="511.4" r="10.3"/>
<text transform="matrix(1 0 0 1 -759.7603 261.1037)" class="st1 st2" style="font-size:139.02px; letter-spacing:-13;">on</text>
<text transform="matrix(6.123234e-17 1 -1 6.123234e-17 -422.773 393.0034)" class="st1 st2" style="font-size:139.02px; letter-spacing:-13;">our</text>
<text transform="matrix(-1 0 0 -1 -542.4039 759.7775)" class="st1 st2" style="font-size:139.02px; letter-spacing:-11;">own</text>
<text transform="matrix(6.123234e-17 -1 1 6.123234e-17 -920.121 683.13)" class="st1 st2" style="font-size:139.02px; letter-spacing:-13;">time</text>
<circle class="st6" cx="-673" cy="511.4" r="215.8"/>
<circle class="st1" cx="-673" cy="511.4" r="10.3"/>
</svg>
