<?xml version="1.0" encoding="utf-8"?>
<!-- Generator: Adobe Illustrator 23.1.1, SVG Export Plug-In . SVG Version: 6.00 Build 0)  -->
<svg version="1.1" id="Layer_1" xmlns="http://www.w3.org/2000/svg" xmlns:xlink="http://www.w3.org/1999/xlink" x="0px" y="0px"
	 viewBox="0 0 1064.6 1023" style="enable-background:new 0 0 1064.6 1023;" xml:space="preserve">
<style type="text/css">
	.st0{fill:none;stroke:#0000FF;stroke-width:4;stroke-miterlimit:10;}
	.st1{fill:#0000FF;}
	.st2{enable-background:new    ;}
	.st3{fill:none;stroke:#0000FF;stroke-width:7;stroke-miterlimit:10;}
</style>
<title>Artboard 1 copy</title>
<circle class="st0" cx="551.7" cy="513" r="330"/>
<circle class="st1" cx="551.7" cy="513" r="15.8"/>
<g class="st2">
	<path class="st1" d="M433.8,66.2c0-36.4,23.4-65.9,62.1-65.9c36.4,0,62.3,29.5,62.3,65.9c0,36.4-25.1,65.9-62.3,65.9
		C459.5,132.1,433.8,102.5,433.8,66.2z M541.1,66.2c0-27.4-18.1-49.3-45.3-49.3c-31.5,0-45.1,21.9-45.1,49.3s18.1,49.3,45.1,49.3
		C523.1,115.5,541.1,93.6,541.1,66.2z"/>
	<path class="st1" d="M681.9,130.2h-17l-0.2-74c0-29.8-10-38.5-28.5-38.5c-24.7,0-44,20.4-44,52.1v60.4h-17V2.6h17v10.8
		c0,4.7,0.9,7,3.8,7c1.9,0,3.8-1.5,7.4-4.5c10.2-10,23-14.9,33.8-14.9c24.2,0,44.4,13.8,44.4,50.2L681.9,130.2z"/>
</g>
<g class="st2">
	<path class="st1" d="M998.2,346.7c36.4,0,65.9,23.4,65.9,62.1c0,36.4-29.5,62.3-65.9,62.3c-36.4,0-65.9-25.1-65.9-62.3
		C932.3,372.5,961.9,346.7,998.2,346.7z M998.2,454.1c27.4,0,49.3-18.1,49.3-45.3c0-31.5-21.9-45.1-49.3-45.1s-49.3,18.1-49.3,45.1
		C948.9,436,970.8,454.1,998.2,454.1z"/>
	<path class="st1" d="M1061.8,587.8H934.2v-17h10.8c4.7,0,7-0.8,7-3.8c0-1.9-1.5-3.8-4.5-7.4c-10-10.2-14.9-23-14.9-33.8
		c0-24.2,13.8-44.4,50.2-44.4l78.9-0.2v17l-74,0.2c-29.8,0-38.5,10-38.5,28.5c0,24.7,20.4,44,52.1,44h60.4V587.8z"/>
	<path class="st1" d="M1062,694.1l-16.8-1.9c0.2-2.1,0.4-4.5,0.4-6.8c0-29.3-24.4-55.1-63.8-55.1h-47.6v-17h127.6v17h-15.3
		c-6,0.2-8.5,1.7-8.5,4.7c0,2.8,1.7,4,6,8.3c13.6,14,18.3,31.9,18.3,45.1C1062.2,690.3,1062.2,692.2,1062,694.1z"/>
</g>
<g class="st2">
	<path class="st1" d="M736.4,956.7c0,36.4-23.4,65.9-62.1,65.9c-36.4,0-62.3-29.5-62.3-65.9c0-36.4,25.1-65.9,62.3-65.9
		C710.7,890.8,736.4,920.4,736.4,956.7z M629.1,956.7c0,27.4,18.1,49.3,45.3,49.3c31.5,0,45.1-21.9,45.1-49.3s-18.1-49.3-45.1-49.3
		C647.1,907.4,629.1,929.3,629.1,956.7z"/>
	<path class="st1" d="M482.2,1020.3l25.9-127.6h16.4l14.9,51c1.1,3.4,5.1,3.6,6.6,0.2l13.2-51.2h20.4l24,127.6h-15.1l-16.4-86.1
		c-1.7-8.5-7.9-9.4-10.6-1.9l-11.9,42.9l-13.4-0.2l-12.8-42.3c-2.6-7.2-6.6-7.2-8.3,0.4l-17.9,87.2H482.2z"/>
	<path class="st1" d="M358.4,892.7h17l0.2,74c0,29.8,10,38.5,28.5,38.5c24.7,0,44-20.4,44-52.1v-60.4h17v127.6h-17v-10.8
		c0-4.7-0.9-7-3.8-7c-1.9,0-3.8,1.5-7.4,4.5c-10.2,10-23,14.9-33.8,14.9c-24.2,0-44.4-13.8-44.4-50.2L358.4,892.7z"/>
</g>
<g class="st2">
	<path class="st1" d="M135.6,649c30,0,40.8,26.4,40.8,44.2c0,30.2-16.6,49.5-52.3,49.5L61.5,743v26.1H46.1V743H6.4v-17h39.8v-53.1
		h15.3V726l61.6-0.2c29.5,0,36.8-13.2,36.8-33c0-14.2-8.7-27-24.2-27V649z"/>
	<path class="st1" d="M15.7,638.4c-8.5,0-15.5-6.2-15.5-13.4c0-7.4,7-13.6,15.5-13.6c8.5,0,15.5,6.2,15.5,13.6
		C31.3,632.2,24.3,638.4,15.7,638.4z M46.1,615.9h127.6v17H46.1V615.9z"/>
	<path class="st1" d="M173.7,391.8v17L98.4,409c-26.4,0-37.2,7.4-37.2,28.5c0,24,19.3,42.9,49.5,44l62.9-0.2v17l-75.3,0.2
		c-26.4,0-37.2,7.4-37.2,28.5c0,24.7,20.4,44,52.1,44h60.4v17H46.1v-17H57c4.7,0,7-0.8,7-3.8c0-1.9-1.3-4-4.9-8.1
		c-9.8-10.4-14.5-23.4-14.5-35.1c0-14.7,5.5-26.6,16.8-34c3.8-2.8,6.2-5.1,6.2-7.9s-4.5-8.1-8.5-12.3c-9.8-10.6-14.5-23.6-14.5-35.3
		c0-25.5,16.6-42.5,50.8-42.5L173.7,391.8z"/>
	<path class="st1" d="M127.8,270.2l4.9-16.2c25.1,8.3,42.9,29.8,42.9,58.7c0,36.4-29.5,62.1-65.9,62.1c-36.4,0-65.9-23.4-65.9-62.1
		c0-36.1,29.8-61.9,65.7-62.3l0.4,107.4c27.2,0,49.1-18.1,49.1-45.1C159,291.9,146.1,276.2,127.8,270.2z M93.3,355.9v-86.1
		c-19.1,5.5-33,21.3-33,42.9C60.4,337.6,74,351.2,93.3,355.9z"/>
</g>
<circle class="st3" cx="551.7" cy="513" r="330"/>
<circle class="st1" cx="551.7" cy="513" r="15.8"/>
</svg>
