<?xml version="1.0" encoding="utf-8"?>
<!-- Generator: Adobe Illustrator 23.1.1, SVG Export Plug-In . SVG Version: 6.00 Build 0)  -->
<svg version="1.1" id="Layer_1" xmlns="http://www.w3.org/2000/svg" xmlns:xlink="http://www.w3.org/1999/xlink" x="0px" y="0px"
	 viewBox="0 0 884.3 884.3" style="enable-background:new 0 0 884.3 884.3;" xml:space="preserve">
<style type="text/css">
	.st0{fill:none;stroke:#0000FF;stroke-width:4;stroke-miterlimit:10;}
	.st1{fill:#0000FF;}
	.st2{enable-background:new    ;}
	.st3{fill:none;stroke:#0000FF;stroke-width:7;stroke-miterlimit:10;}
</style>
<title>Artboard 1</title>
<circle class="st0" cx="437.4" cy="437.4" r="215.8"/>
<circle class="st1" cx="437.4" cy="437.4" r="10.3"/>
<g class="st2">
	<path class="st1" d="M360.3,145.2c0-23.8,15.3-43.1,40.6-43.1c23.8,0,40.7,19.3,40.7,43.1c0,23.8-16.4,43.1-40.7,43.1
		C377.1,188.3,360.3,169,360.3,145.2z M430.5,145.2c0-17.9-11.8-32.3-29.6-32.3c-20.6,0-29.5,14.3-29.5,32.3
		c0,17.9,11.8,32.3,29.5,32.3C418.7,177.5,430.5,163.1,430.5,145.2z"/>
	<path class="st1" d="M522.6,187.1h-11.1l-0.1-48.4c0-19.5-6.5-25.2-18.6-25.2c-16.1,0-28.8,13.3-28.8,34.1v39.5h-11.1v-83.4h11.1
		v7.1c0,3.1,0.6,4.6,2.5,4.6c1.3,0,2.5-1,4.9-2.9c6.7-6.5,15-9.7,22.1-9.7c15.8,0,29.1,9,29.1,32.8L522.6,187.1z"/>
</g>
<g class="st2">
	<path class="st1" d="M729.4,328.7c23.8,0,43.1,15.3,43.1,40.6c0,23.8-19.3,40.7-43.1,40.7c-23.8,0-43.1-16.4-43.1-40.7
		C686.3,345.5,705.6,328.7,729.4,328.7z M729.4,398.9c17.9,0,32.3-11.8,32.3-29.6c0-20.6-14.3-29.5-32.3-29.5
		c-17.9,0-32.3,11.8-32.3,29.5C697.2,387.1,711.5,398.9,729.4,398.9z"/>
	<path class="st1" d="M771,486.3h-83.4v-11.1h7.1c3.1,0,4.6-0.6,4.6-2.5c0-1.3-1-2.5-2.9-4.9c-6.5-6.7-9.7-15-9.7-22.1
		c0-15.8,9-29.1,32.8-29.1l51.6-0.1v11.1l-48.4,0.1c-19.5,0-25.2,6.5-25.2,18.6c0,16.1,13.3,28.8,34.1,28.8H771V486.3z"/>
	<path class="st1" d="M771.1,555.8l-11-1.3c0.1-1.4,0.3-2.9,0.3-4.4c0-19.2-16-36-41.7-36h-31.1V503H771v11.1h-10
		c-3.9,0.1-5.6,1.1-5.6,3.1c0,1.8,1.1,2.6,3.9,5.4c8.9,9.2,12,20.9,12,29.5C771.3,553.3,771.3,554.6,771.1,555.8z"/>
</g>
<g class="st2">
	<path class="st1" d="M558.2,727.6c0,23.8-15.3,43.1-40.6,43.1c-23.8,0-40.7-19.3-40.7-43.1c0-23.8,16.4-43.1,40.7-43.1
		C541.4,684.5,558.2,703.8,558.2,727.6z M488,727.6c0,17.9,11.8,32.3,29.6,32.3c20.6,0,29.5-14.3,29.5-32.3
		c0-17.9-11.8-32.3-29.5-32.3C499.8,695.3,488,709.6,488,727.6z"/>
	<path class="st1" d="M391.9,769.1l17-83.4h10.7l9.7,33.4c0.7,2.2,3.3,2.4,4.3,0.1l8.6-33.5h13.3l15.7,83.4h-9.9l-10.7-56.3
		c-1.1-5.6-5.1-6.1-7-1.3l-7.8,28.1l-8.8-0.1l-8.3-27.7c-1.7-4.7-4.3-4.7-5.4,0.3l-11.7,57H391.9z"/>
	<path class="st1" d="M311,685.7h11.1l0.1,48.4c0,19.5,6.5,25.2,18.6,25.2c16.1,0,28.8-13.3,28.8-34.1v-39.5h11.1v83.4h-11.1V762
		c0-3.1-0.6-4.6-2.5-4.6c-1.3,0-2.5,1-4.9,2.9c-6.7,6.5-15,9.7-22.1,9.7c-15.8,0-29.1-9-29.1-32.8L311,685.7z"/>
</g>
<g class="st2">
	<path class="st1" d="M165.3,526.4c19.6,0,26.7,17.2,26.7,28.9c0,19.7-10.8,32.4-34.2,32.4l-41,0.1v17.1h-10v-17.1h-26v-11.1h26
		v-34.8h10v34.8l40.3-0.1c19.3,0,24.1-8.6,24.1-21.5c0-9.3-5.7-17.7-15.8-17.7V526.4z"/>
	<path class="st1" d="M86.9,519.4c-5.6,0-10.1-4-10.1-8.8c0-4.9,4.6-8.9,10.1-8.9s10.1,4,10.1,8.9C97.1,515.4,92.5,519.4,86.9,519.4
		z M106.8,504.7h83.4v11.1h-83.4V504.7z"/>
	<path class="st1" d="M190.2,358.2v11.1l-49.2,0.1c-17.2,0-24.3,4.9-24.3,18.6c0,15.7,12.7,28.1,32.4,28.8l41.2-0.1v11.1l-49.2,0.1
		c-17.2,0-24.3,4.9-24.3,18.6c0,16.1,13.3,28.8,34.1,28.8h39.5v11.1h-83.4v-11.1h7.1c3.1,0,4.6-0.6,4.6-2.5c0-1.3-0.8-2.6-3.2-5.3
		c-6.4-6.8-9.5-15.3-9.5-22.9c0-9.6,3.6-17.4,11-22.2c2.5-1.8,4-3.3,4-5.1s-2.9-5.3-5.6-8.1c-6.4-7-9.5-15.4-9.5-23.1
		c0-16.7,10.8-27.8,33.2-27.8L190.2,358.2z"/>
	<path class="st1" d="M160.2,278.6l3.2-10.6c16.4,5.4,28.1,19.5,28.1,38.4c0,23.8-19.3,40.6-43.1,40.6c-23.8,0-43.1-15.3-43.1-40.6
		c0-23.6,19.5-40.5,43-40.7l0.3,70.2c17.8,0,32.1-11.8,32.1-29.5C180.6,292.8,172.2,282.5,160.2,278.6z M137.7,334.7v-56.3
		c-12.5,3.6-21.5,13.9-21.5,28.1C116.1,322.7,125,331.6,137.7,334.7z"/>
</g>
<circle class="st3" cx="437.4" cy="437.4" r="215.8"/>
<circle class="st1" cx="437.4" cy="437.4" r="10.3"/>
</svg>
